<svg xmlns="http://www.w3.org/2000/svg" version="1.1" xmlns:xlink="http://www.w3.org/1999/xlink" xmlns:svgjs="http://svgjs.dev/svgjs" width="1440" height="560" preserveAspectRatio="none" viewBox="0 0 1440 560"><g mask="url(&quot;#SvgjsMask1047&quot;)" fill="none"><rect width="1440" height="560" x="0" y="0" fill="rgba(169, 169, 169, 1)"></rect><path d="M0,527.385C100.778,526.861,201.723,499.992,283.27,440.776C362.43,383.293,401.453,290.787,445.862,203.618C492.24,112.584,553.123,23.252,547.965,-78.785C542.614,-184.64,494.174,-288.627,417.29,-361.584C343.389,-431.711,228.492,-422.464,137.501,-468.287C18.656,-528.138,-64.205,-679.307,-197.007,-670.945C-327.321,-662.74,-413.893,-531.209,-494.508,-428.494C-572.108,-329.621,-632.024,-217.852,-650.221,-93.488C-668.447,31.072,-667.858,168.567,-597.105,272.689C-529.078,372.799,-396.501,396.245,-285.17,443.733C-192.167,483.403,-101.109,527.911,0,527.385" fill="#a1a1a1"></path><path d="M1440 1097.123C1540.114 1077.467 1568.6399999999999 946.13 1643.836 877.1759999999999 1702.239 823.62 1780.922 799.972 1831.009 738.568 1892.65 663 1967.156 582.127 1964.013 484.658 1960.826 385.825 1881.824 307.93600000000004 1814.779 235.252 1749.431 164.40800000000002 1678.435 87.43099999999998 1583.308 71.93599999999998 1490.941 56.889999999999986 1402.244 108.32499999999999 1321.03 154.825 1253.412 193.54000000000002 1212.555 260.031 1157.864 315.528 1098.578 375.688 1019.0409999999999 416.976 986.058 494.733 948.211 583.958 925.205 688.658 961.4649999999999 778.54 998.085 869.315 1095.818 914.531 1177.296 968.775 1260.099 1023.9010000000001 1342.389 1116.288 1440 1097.123" fill="#b1b1b1"></path></g><defs><mask id="SvgjsMask1047"><rect width="1440" height="560" fill="#ffffff"></rect></mask></defs></svg>